<svg width="281.1600341796875" height="112.80002" xmlns="http://www.w3.org/2000/svg">

 <g>
  <title>background</title>
  <rect fill="none" id="canvas_background" height="114.80002" width="283.160034" y="-1" x="-1"/>
 </g>
 <g>
  <title>Layer 1</title>
  <g fill="#ffffff" id="SvgjsG1069">
   <path id="svg_1" d="m20.088001,1.000002l0,50.4l-5.04,0l0,-25.2l-10.008,0l0,25.2l-5.04,0l0,-50.4l5.04,0l0,20.16l10.008,0l0,-20.16l5.04,0zm24.696,0.072l0,44.64q0,2.16 -1.332,3.744t-3.42,1.944l-10.44,0q-2.088,-0.36 -3.456,-1.944t-1.368,-3.744l0,-44.64l5.04,0l0,44.64q0,0.72 0.72,0.72l8.568,0q0.648,0 0.648,-0.72l0,-44.64l5.04,0zm19.008,-0.072q2.376,0 4.068,1.728t1.692,4.104l0,38.88q0,2.304 -1.692,3.996t-4.068,1.692l-14.328,0l0,-30.24l5.04,0l-5.04,-15.12l0,-5.04l14.328,0zm0.72,5.832q0,-0.72 -0.72,-0.72l-9.288,0l0,40.248l9.288,0q0.72,0 0.72,-0.648l0,-38.88zm24.048,5.256l0,-5.4q0,-0.72 -0.72,-0.72l-7.848,0q-0.72,0 -0.72,0.72l0,13.68q0,0.504 0.432,0.648l8.136,0q2.448,0 4.104,1.692t1.656,4.068l0,18.936q0,2.16 -1.368,3.744t-3.456,1.944l-9.72,0q-2.088,-0.36 -3.456,-1.944t-1.368,-3.744l0,-5.4l5.04,0l0,5.4q0,0.72 0.72,0.72l7.848,0q0.72,0 0.72,-0.72l0,-18.936q0,-0.504 -0.432,-0.648l-8.136,0q-2.376,0 -4.068,-1.692t-1.692,-4.068l0,-13.68q0,-2.16 1.368,-3.744t3.456,-1.944l9.72,0q2.088,0.36 3.456,1.944t1.368,3.744l0,5.4l-5.04,0zm25.128,-11.088q2.088,0.36 3.456,1.944t1.368,3.744l0,39.024q0,2.16 -1.368,3.744t-3.456,1.944l-10.584,0q-2.088,-0.36 -3.456,-1.944t-1.368,-3.744l0,-39.024q0,-2.16 1.368,-3.744t3.456,-1.944l10.584,0zm-0.216,5.688q0,-0.72 -0.648,-0.72l-8.784,0q-0.72,0 -0.72,0.72l0,39.024q0,0.72 0.72,0.72l8.784,0q0.648,0 0.648,-0.72l0,-39.024zm29.88,-5.688l0,50.4l-5.04,0l0,0l-0.144,0l-9.936,-33.264l0,33.264l-5.04,0l0,-50.4l5.04,0l0,0.072l10.08,33.264l0,-33.336l5.04,0zm39.312,0l-8.856,33.048l0,17.352l-5.04,0l0,-17.352l-8.856,-33.048l5.112,0l6.264,22.968l6.264,-22.968l5.112,0zm15.12,10.152l-3.672,23.256l3.672,0l0,5.04l-4.464,0l-1.944,11.952l-5.112,0l1.944,-11.952l-1.944,0l0,-5.04l2.736,0l5.328,-33.408l6.912,0l8.064,50.4l-5.112,0l-6.408,-40.248zm14.328,10.008l5.04,0l0,30.24l-5.04,0l0,-30.24zm14.544,-20.16q2.304,0 3.996,1.692t1.692,4.068l0,13.68q0,2.376 -1.692,4.068t-3.996,1.692l-1.8,0l7.488,25.2l-5.4,0l-8.712,-30.24l8.424,0q0.648,0 0.648,-0.72l0,-13.68q0,-0.72 -0.648,-0.72l-9.504,0l0,15.12l-5.04,-15.12l0,-5.04l14.544,0zm24.696,0q2.376,0 4.068,1.728t1.692,4.104l0,38.88q0,2.304 -1.692,3.996t-4.068,1.692l-14.328,0l0,-30.24l5.04,0l-5.04,-15.12l0,-5.04l14.328,0zm0.72,5.832q0,-0.72 -0.72,-0.72l-9.288,0l0,40.248l9.288,0q0.72,0 0.72,-0.648l0,-38.88zm24.048,5.256l0,-5.4q0,-0.72 -0.72,-0.72l-7.848,0q-0.72,0 -0.72,0.72l0,13.68q0,0.504 0.432,0.648l8.136,0q2.448,0 4.104,1.692t1.656,4.068l0,18.936q0,2.16 -1.368,3.744t-3.456,1.944l-9.72,0q-2.088,-0.36 -3.456,-1.944t-1.368,-3.744l0,-5.4l5.04,0l0,5.4q0,0.72 0.72,0.72l7.848,0q0.72,0 0.72,-0.72l0,-18.936q0,-0.504 -0.432,-0.648l-8.136,0q-2.376,0 -4.068,-1.692t-1.692,-4.068l0,-13.68q0,-2.16 1.368,-3.744t3.456,-1.944l9.72,0q2.088,0.36 3.456,1.944t1.368,3.744l0,5.4l-5.04,0z"/>
  </g>
  <g fill="#ffffff" id="SvgjsG1070">
   <path id="svg_2" d="m37.656006,99.848018l-9.072,0l-1.872,11.952l-5.112,0l8.064,-50.4l6.912,0l8.064,50.4l-5.112,0l-1.872,-11.952zm-0.792,-5.04l-3.744,-23.256l-3.672,23.256l7.416,0zm24.912,-33.408q2.376,0 4.068,1.728t1.692,4.104l0,38.88q0,2.304 -1.692,3.996t-4.068,1.692l-14.328,0l0,-30.24l5.04,0l-5.04,-15.12l0,-5.04l14.328,0zm0.72,5.832q0,-0.72 -0.72,-0.72l-9.288,0l0,40.248l9.288,0q0.72,0 0.72,-0.648l0,-38.88zm32.76,-5.832l-8.064,50.4l-6.912,0l-8.064,-50.4l5.112,0l6.408,40.32l6.408,-40.32l5.112,0zm9.36,5.04l0,15.12l10.512,0l0,5.04l-10.512,0l0,20.16l13.104,0l0,5.04l-18.144,0l0,-30.24l5.04,0l-5.04,-15.12l0,-5.04l18.144,0l0,5.04l-13.104,0zm17.784,15.12l5.04,0l0,30.24l-5.04,0l0,-30.24zm14.544,-20.16q2.304,0 3.996,1.692t1.692,4.068l0,13.68q0,2.376 -1.692,4.068t-3.996,1.692l-1.8,0l7.488,25.2l-5.4,0l-8.712,-30.24l8.424,0q0.648,0 0.648,-0.72l0,-13.68q0,-0.72 -0.648,-0.72l-9.504,0l0,15.12l-5.04,-15.12l0,-5.04l14.544,0zm29.52,5.04l-7.056,0l0,45.36l-5.04,0l0,-45.36l-7.056,0l0,-5.04l19.152,0l0,5.04zm9.72,45.36l-5.04,0l0,-50.4l5.04,0l0,50.4zm19.008,-39.312l0,-5.4q0,-0.72 -0.72,-0.72l-7.848,0q-0.72,0 -0.72,0.72l0,13.68q0,0.504 0.432,0.648l8.136,0q2.448,0 4.104,1.692t1.656,4.068l0,18.936q0,2.16 -1.368,3.744t-3.456,1.944l-9.72,0q-2.088,-0.36 -3.456,-1.944t-1.368,-3.744l0,-5.4l5.04,0l0,5.4q0,0.72 0.72,0.72l7.848,0q0.72,0 0.72,-0.72l0,-18.936q0,-0.504 -0.432,-0.648l-8.136,0q-2.376,0 -4.068,-1.692t-1.692,-4.068l0,-13.68q0,-2.16 1.368,-3.744t3.456,-1.944l9.72,0q2.088,0.36 3.456,1.944t1.368,3.744l0,5.4l-5.04,0zm14.76,39.312l-5.04,0l0,-50.4l5.04,0l0,50.4zm24.84,-50.4l0,50.4l-5.04,0l0,0l-0.144,0l-9.936,-33.264l0,33.264l-5.04,0l0,-50.4l5.04,0l0,0.072l10.08,33.264l0,-33.336l5.04,0zm24.768,25.128l0,19.584q0,2.16 -1.368,3.744t-3.456,1.944l-10.44,0q-2.088,-0.36 -3.456,-1.944t-1.368,-3.744l0,-39.024q0,-2.16 1.368,-3.744t3.456,-1.944l10.44,0q2.088,0.36 3.456,1.944t1.368,3.744l0,5.256l-5.04,0l0,-5.256q0,-0.72 -0.72,-0.72l-8.568,0q-0.72,0 -0.72,0.72l0,39.024q0,0.72 0.72,0.72l8.568,0q0.72,0 0.72,-0.72l0,-19.584l-5.976,0l0,-5.04l11.016,0l0,5.04z"/>
  </g>
 </g>
</svg>